<svg xmlns="http://www.w3.org/2000/svg" viewBox="0 0 800 450"><defs><linearGradient id="sky" x1="0" y1="0" x2="0" y2="1"><stop stop-color="#77b9eb"/><stop offset="1" stop-color="#f7d49a"/></linearGradient><linearGradient id="water" x1="0" y1="0" x2="1" y2="0"><stop stop-color="#145c8c"/><stop offset="1" stop-color="#2e83b7"/></linearGradient></defs><rect width="800" height="450" fill="url(#sky)"/><circle cx="650" cy="85" r="45" fill="#fff1a7" opacity=".85"/><path d="M0 290h800v160H0z" fill="url(#water)"/><path d="M60 290V190h80v100M160 290V140h100v150M285 290V205h70v85M380 290V165h105v125M515 290V215h55v75M595 290V120h90v170M700 290V185h60v105" fill="#e7e0ce" stroke="#3c5364" stroke-width="5"/><path d="M620 120l20-55 20 55" fill="#314b5e"/><path d="M638 65v-40" stroke="#314b5e" stroke-width="5"/><path d="M641 28h42l-12 14 12 14h-42" fill="#d71920"/><path d="M0 315q90-30 180 0t180 0t180 0t180 0t180 0" fill="none" stroke="#b6e0f6" stroke-width="6" opacity=".7"/></svg>
